<?xml version="1.0" encoding="UTF-8"?><svg id="Layer_1" xmlns="http://www.w3.org/2000/svg" viewBox="0 0 1416 207"><defs><style>.cls-1{fill:#000;stroke-width:0px;}</style></defs><path class="cls-1" d="M201.9,72.69h-19.89c3.74,9.55,5.82,19.94,5.82,30.81,0,46.69-37.85,84.54-84.54,84.54-15.65,0-30.3-4.26-42.87-11.68,23.53-9.06,42.32-29.22,48.42-55.58l7.03-30.38c3.2-13.85,11-25.46,21.42-33.6,4-3.13,8.42-5.61,13.09-7.48,6.34-2.54,14.76-4.4,23.8-4.4l14.13-.03C169.66,17.97,138.52.21,103.29.21,46.24.21,0,46.46,0,103.5c0,10.73,1.64,21.07,4.67,30.8h19.89c-3.74-9.55-5.81-19.93-5.81-30.8,0-46.69,37.85-84.54,84.54-84.54,15.65,0,30.3,4.26,42.87,11.68-23.53,9.06-42.32,29.22-48.42,55.58l-7.03,30.38c-3.2,13.85-11.01,25.46-21.42,33.6-4,3.13-8.42,5.61-13.08,7.48-6.34,2.54-14.24,4.39-24.84,4.39l-13.1.02c18.64,26.94,49.78,44.71,85.03,44.71,57.04,0,103.29-46.24,103.29-103.29,0-10.73-1.64-21.08-4.68-30.81Z"/><path class="cls-1" d="M369.94,41.3c-35.06,0-59.54,24.95-59.54,61.42s24.48,61.42,59.54,61.42,59.54-24.94,59.54-61.42-24.48-61.42-59.54-61.42ZM369.94,146.97c-23.77,0-39.77-18.59-39.77-44.24s16-44.24,39.77-44.24,39.77,18.59,39.77,44.24-16,44.24-39.77,44.24Z"/><path class="cls-1" d="M506.73,41.3c-20.24,0-32.48,8.47-39.54,17.65l-2.59-16.24h-16.71v120.03h19.3v-60.01c0-27.06,13.65-43.77,36.24-43.77,20.95,0,32.48,13.18,32.48,38.13v65.66h19.3v-66.84c0-39.77-21.42-54.6-48.48-54.6Z"/><path class="cls-1" d="M631.22,41.3c-33.89,0-56.95,24.95-56.95,61.42s23.53,61.42,59.54,61.42c27.77,0,47.54-17.65,52.25-41.65h-19.53c-4,15.53-17.18,24.47-34.13,24.47-22.83,0-37.18-16-37.89-38.83v-1.65h93.2c.23-2.82.47-5.65.47-8.24-.94-35.54-23.06-56.95-56.95-56.95ZM595.68,90.49c1.88-19.53,18.12-32.24,35.77-32.24,20,0,34.13,11.53,36.01,32.24h-71.78Z"/><path class="cls-1" d="M756.65,92.84c-17.42-2.12-30.12-3.76-30.12-16.94,0-11.06,11.3-18.13,28-18.13s27.77,9.18,29.18,21.42h19.77c-1.88-24.95-21.65-37.66-48.95-37.89-27.06-.23-47.07,14.12-47.07,36.01,0,24.95,21.42,30.36,48.25,33.65,17.88,2.12,31.07,3.3,31.07,18.36,0,11.06-12,18.36-28.95,18.36-20,0-32.48-10.35-33.18-24.47h-19.77c.47,26.36,21.89,40.95,52.95,40.95,26.59,0,48.01-13.88,48.01-36.24,0-26.59-21.89-31.77-49.19-35.07Z"/><path class="cls-1" d="M855.48,131.21V60.37h31.06v-17.65h-31.06V9.06h-19.3v33.65h-21.65v17.65h21.65v71.08c0,21.18,8.24,31.3,31.3,31.3h20.95v-17.65h-19.06c-10.35,0-13.88-3.76-13.88-13.88Z"/><path class="cls-1" d="M924.43,60.84l-2.59-18.13h-16.71v120.03h19.3v-61.19c0-19.06,6.82-40.01,32.01-40.01h9.65v-18.83h-5.41c-21.42,0-30.6,8.94-36.24,18.13Z"/><path class="cls-1" d="M1028.68,41.3c-33.89,0-56.95,24.95-56.95,61.42s23.53,61.42,59.54,61.42c27.77,0,47.54-17.65,52.25-41.65h-19.53c-4,15.53-17.18,24.47-34.13,24.47-22.83,0-37.18-16-37.89-38.83v-1.65h93.2c.23-2.82.47-5.65.47-8.24-.94-35.54-23.06-56.95-56.95-56.95ZM993.14,90.49c1.88-19.53,18.12-32.24,35.77-32.24,20,0,34.13,11.53,36.01,32.24h-71.78Z"/><path class="cls-1" d="M1206.12,137.09v-52.48c0-28.01-17.65-43.3-48.25-43.3-28.95,0-48.01,13.89-50.83,37.42h19.3c2.35-12.24,13.65-20.24,30.6-20.24,18.83,0,29.89,9.42,29.89,24.95v8.24h-35.3c-31.53,0-48.25,13.42-48.25,37.42,0,21.89,17.89,35.07,44.24,35.07,20.71,0,32.71-9.18,40.25-20,.23,11.77,5.65,18.59,21.65,18.59h10.59v-17.65h-6.12c-5.41,0-7.77-1.64-7.77-8ZM1186.82,113.79c0,20-13.89,33.89-37.89,33.89-16,0-26.12-8-26.12-19.77,0-13.65,9.65-20,26.83-20h37.18v5.88Z"/><path class="cls-1" d="M1370.58,41.3c-21.42,0-34.36,9.89-41.66,22.83-6.83-15.3-21.18-22.83-37.89-22.83-18.59,0-28.71,9.18-35.07,17.89l-2.59-16.48h-16.71v120.03h19.3v-63.31c0-24.01,12-40.48,31.77-40.48,18.36,0,28.95,12.24,28.95,35.77v68.02h19.3v-64.25c0-24.47,12.24-39.54,32.24-39.54,18.12,0,28.48,12.24,28.48,35.77v68.02h19.3v-69.19c0-37.89-20.47-52.25-45.42-52.25Z"/></svg>