<?xml version="1.0" encoding="UTF-8"?><svg id="Layer_2" xmlns="http://www.w3.org/2000/svg" viewBox="0 0 144 144"><defs><style>.cls-1{fill:none;}.cls-2{fill:#3d65c7;}</style></defs><g id="Layer_1-2"><g><rect class="cls-1" width="144" height="144"/><path class="cls-2" d="m129.05,95.46c8.68,12.35,5.71,29.39-6.64,38.07-6.02,4.38-13.6,6.02-20.95,4.53-.47-.08-1.02-.08-1.41-.7,1.33-1.17,3.05-1.8,4.85-1.64,10.4.55,18.37-3.75,23.37-12.82,5-9.07,4.07-18.06-1.88-26.58-.08,0-.08-.08-.16-.16-1.49-1.88-1.57-1.88-3.6-.7-3.44,2.11-6.33,5.08-8.21,8.68-1.56,2.97-2.73,6.18-3.36,9.54-.55,2.97-1.33,5.94-2.34,8.83-.39,1.09-.86,2.19-1.33,3.2-3.52,7.66-9.46,11.65-17.9,11.88-5.47.16-10.94-1.02-15.94-3.44h0c6.41.08,12.74-1.25,18.53-3.99,6.8-3.05,12.04-8.68,14.62-15.71.63-1.72,1.33-3.52,1.96-5.32,2.89-7.81,8.28-12.97,15.94-15.94,1.36-.52,2.5-.21,3.44.94.39.39.7.86,1.02,1.33Zm-15.55-10.72s0,0,0,0c0,0,0,0,0,0h0Zm9.3,0c-7.74.55-13.13,4.38-16.57,11.18-1.02,2.03-1.88,4.22-2.42,6.41-.86,3.36-1.56,6.8-2.5,10.08-1.8,6.1-5.16,11.1-10.63,14.38-1.96,1.17-2.03,1.17-3.36-.63-6.1-8.36-7.19-17.35-2.34-26.58,4.85-9.22,12.9-13.6,23.37-13.21,1.87.31,3.82-.31,5.15-1.63-1.33-.39-2.65-.7-4.06-.78-11.25-1.02-21.81,4.46-26.89,14.46-5.24,10.4-4.14,20.4,2.81,29.78.7.94,1.33,1.8,2.81,1.17,7.19-2.81,12.74-7.19,15.79-14.46,1.17-2.73,2.11-5.55,3.2-8.29,2.11-5.32,5.94-9.85,10.86-12.82,5.86-3.67,12.66-5.55,19.54-5.47h2.27c-5.24-2.73-11.18-3.99-17.04-3.6Zm16.68-46.23c-.51-.71-1.34-1.13-2.21-1.13H39.08l-7.62-28.93c-.48-1.8-2.1-3.06-3.97-3.06H8.1c-2.27,0-4.1,1.84-4.1,4.1s1.84,4.1,4.1,4.1h16.23l18.63,79.42c.28,1.25,1.4,2.14,2.68,2.14h.02c.53,0,13.51.03,17.68,11.48.39,1.07,1.4,1.78,2.53,1.8l5.14.07h.04c1.38,0,2.55-1.04,2.71-2.41.02-.17,2.28-17.31,17.52-24.76,7.06-3.45,15.92-2.78,22.11-1.61,7.41,1.4,14.73-2.89,17.05-9.98l9.43-28.8c.27-.83.13-1.75-.38-2.46Zm-93.98,62.3c-7.4,0-13.41,6.02-13.41,13.41s6.02,13.41,13.41,13.41,13.41-6.02,13.41-13.41-6.02-13.41-13.41-13.41Z"/></g></g></svg>