<?xml version="1.0" encoding="UTF-8"?><svg id="Layer_2" xmlns="http://www.w3.org/2000/svg" viewBox="0 0 144 144"><defs><style>.cls-1{fill:none;}.cls-2{fill:#fff;}</style></defs><g id="Layer_1-2"><g><rect class="cls-1" width="144" height="144"/><g><path class="cls-2" d="m70.03,40.6l4.38.06s0,.04,0,.05c.52,3.21,1.63,6.18,3.14,8.86l-3.41,2.79c-.56.46-.64,1.29-.19,1.85l4.19,5.13c.46.56,1.29.65,1.85.19l3.4-2.78c2.4,2.07,5.15,3.69,8.13,4.82l-.82,4.33c-.13.71.33,1.4,1.05,1.54l6.51,1.23c.71.14,1.4-.33,1.54-1.05l.82-4.32c1.56.02,3.14-.07,4.73-.33,1.59-.26,3.12-.68,4.59-1.2l2.15,3.84c.36.63,1.16.86,1.79.5l5.78-3.24c.63-.36.86-1.16.5-1.79l-2.15-3.84c2.46-2.01,4.56-4.43,6.17-7.16l4.11,1.55c.68.26,1.44-.09,1.7-.76l2.34-6.19c.26-.68-.09-1.44-.76-1.7l-4.12-1.56c.58-3.02.68-6.19.16-9.4,0-.02,0-.03-.01-.05l4.13-1.45c.69-.24,1.05-.99.81-1.68l-2.19-6.25c-.24-.69-.99-1.05-1.68-.81l-4.16,1.45c-1.57-2.8-3.59-5.27-5.98-7.32l2.25-3.78c.37-.62.17-1.43-.46-1.8l-5.69-3.38c-.62-.37-1.43-.17-1.8.46l-2.25,3.79c-2.92-1.12-6.05-1.73-9.28-1.76l-.71-4.34c-.12-.72-.79-1.2-1.51-1.09l-6.53,1.07c-.72.12-1.2.79-1.09,1.51l.71,4.34c-3.05,1.06-5.83,2.64-8.24,4.62l-3.34-2.88c-.55-.47-1.38-.41-1.85.14l-4.32,5.02c-.47.55-.41,1.38.14,1.85l3.33,2.87c-1.61,2.7-2.74,5.69-3.34,8.84l-4.41-.06c-.73,0-1.32.57-1.33,1.3l-.08,6.62c0,.73.57,1.32,1.3,1.33Zm28.33-20.45c8.94-1.46,17.4,4.62,18.86,13.56,1.46,8.94-4.62,17.4-13.56,18.86-8.94,1.46-17.4-4.62-18.86-13.56-1.46-8.94,4.62-17.4,13.56-18.86Z"/><path class="cls-2" d="m12.49,79.81h9.37l.25-1.47c.52-3.01,1.32-6,2.39-8.89l.52-1.4-8.12-4.69c-.24-.14-.32-.35-.35-.46s-.06-.34.08-.57l6.37-11.04c.14-.24.35-.32.46-.35.11-.03.34-.06.57.08l8.1,4.68.96-1.15c1.97-2.36,4.16-4.55,6.52-6.52l1.15-.96-4.68-8.1c-.14-.24-.11-.46-.08-.57.03-.11.12-.32.35-.46l11.03-6.37c.36-.21.83-.08,1.04.28l4.69,8.12,1.4-.52c3.15-1.16,6.41-2.1,8.95-2.56.96-.18,1.6-1.1,1.43-2.07-.18-.96-1.11-1.6-2.07-1.42-2.34.43-5.24,1.23-8.13,2.22l-3.2-5.55c-1.19-2.05-3.83-2.76-5.88-1.57l-11.03,6.37c-1,.58-1.71,1.5-2.01,2.61-.3,1.11-.14,2.27.43,3.27l3.19,5.53c-1.72,1.51-3.34,3.14-4.86,4.86l-5.53-3.19c-1-.58-2.16-.73-3.27-.43-1.11.3-2.04,1.01-2.61,2.01l-6.37,11.03c-.58,1-.73,2.16-.43,3.27.3,1.11,1.01,2.04,2.01,2.61l5.55,3.2c-.73,2.17-1.33,4.39-1.78,6.63h-6.4c-2.37,0-4.31,1.93-4.31,4.31v12.74c0,2.37,1.93,4.31,4.31,4.31h6.4c.45,2.23,1.05,4.45,1.78,6.63l-5.55,3.2c-2.06,1.19-2.76,3.82-1.58,5.88l6.37,11.04c.33.57.93.89,1.54.89.3,0,.61-.08.89-.24.85-.49,1.14-1.58.65-2.42l-6.37-11.04c-.21-.36-.08-.82.28-1.03l8.12-4.69-.52-1.4c-1.07-2.89-1.87-5.88-2.39-8.89l-.25-1.47h-9.37c-.42,0-.76-.34-.76-.76v-12.74c0-.42.34-.76.76-.76Z"/><path class="cls-2" d="m131.51,76.26h-6.39c-.75-3.64-2.28-7.99-2.35-8.2-.33-.92-1.33-1.41-2.26-1.08-.92.33-1.41,1.34-1.08,2.26.02.05,1.95,5.57,2.46,9.05l.22,1.52h9.41c.42,0,.76.34.76.76v12.74c0,.42-.34.76-.76.76h-9.37l-.25,1.47c-.51,3-1.32,5.99-2.39,8.89l-.52,1.4,8.12,4.69c.36.21.49.67.28,1.03l-6.37,11.04c-.49.85-.2,1.93.65,2.42.28.16.58.24.89.24.61,0,1.21-.32,1.54-.89l6.37-11.04c.58-1,.73-2.16.43-3.27-.3-1.11-1.01-2.04-2.01-2.61l-5.55-3.2c.74-2.18,1.33-4.4,1.78-6.63h6.4c2.37,0,4.31-1.93,4.31-4.31v-12.74c0-2.37-1.93-4.31-4.31-4.31Z"/><path class="cls-2" d="m117.06,120.65c-.76-5.86-5.93-10.29-12.03-10.29h-11c4.2,3.39,7.14,8.26,7.87,13.88l.82,6.38h13.31s0,.01,0,.01c.58,0,1.14-.25,1.53-.69.39-.44.57-1.02.49-1.6l-.99-7.69Z"/><path class="cls-2" d="m45.34,76.25h-.01c-7.84,0-14.23,6.35-14.24,14.17,0,7.82,6.37,14.19,14.22,14.19h.01c2.71,0,5.23-.77,7.39-2.08-3.51-4.37-5.42-9.74-5.42-15.41,0-3.65.82-7.1,2.26-10.22-1.33-.41-2.75-.64-4.22-.64Z"/><path class="cls-2" d="m97.49,124.81c-1.11-8.56-8.63-15.02-17.5-15.03h-15.85s-.01-.01-.02-.01c-8.86,0-16.39,6.44-17.51,15l-1.28,9.78c-.18,1.37.24,2.75,1.16,3.8.92,1.03,2.23,1.62,3.61,1.62l43.86.04h0c1.37,0,2.69-.59,3.61-1.63.92-1.04,1.34-2.42,1.16-3.79l-1.26-9.78Z"/><path class="cls-2" d="m50.04,110.35h-10.96s0,0-.01,0c-6.1,0-11.27,4.42-12.04,10.27l-1,7.69c-.08.58.1,1.16.49,1.6.39.44.94.69,1.53.69h13.31s.84-6.41.84-6.41c.73-5.6,3.66-10.44,7.84-13.83Z"/><path class="cls-2" d="m98.82,104.62c7.84,0,14.23-6.35,14.24-14.17,0-7.82-6.37-14.19-14.22-14.19h-.01c-1.47,0-2.88.22-4.21.63,1.46,3.19,2.26,6.67,2.25,10.27,0,5.82-2.07,11.13-5.47,15.35,2.16,1.32,4.69,2.1,7.41,2.1h.01Z"/><path class="cls-2" d="m72.06,107.39h.02c11.2,0,20.32-9.08,20.33-20.24,0-5.4-2.11-10.49-5.95-14.32-3.84-3.83-8.94-5.94-14.36-5.95h-.02c-11.2,0-20.32,9.08-20.32,20.24,0,5.4,2.11,10.49,5.95,14.32,3.84,3.83,8.94,5.94,14.36,5.95Z"/></g></g></g></svg>