<?xml version="1.0" encoding="UTF-8"?><svg id="Layer_2" xmlns="http://www.w3.org/2000/svg" viewBox="0 0 144 144"><defs><style>.cls-1{fill:none;}.cls-2{fill:#fff;}</style></defs><g id="Layer_1-2"><g><rect class="cls-1" width="144" height="144"/><g><path class="cls-2" d="m75.46,54.04c.34.27.83.22,1.11-.11l2.5-3.07c.27-.34.22-.83-.11-1.11l-2.04-1.67c.9-1.61,1.56-3.38,1.87-5.3,0-.01,0-.02,0-.03l2.62-.04c.43,0,.78-.36.78-.8l-.06-3.96c0-.43-.36-.78-.8-.78l-2.64.04c-.36-1.88-1.04-3.67-2-5.28l1.99-1.72c.33-.28.37-.78.08-1.11l-2.59-3c-.28-.33-.78-.37-1.11-.08l-2,1.72c-1.44-1.19-3.1-2.13-4.93-2.76l.42-2.6c.07-.43-.22-.83-.65-.9l-3.91-.63c-.43-.07-.83.22-.9.65l-.42,2.6c-1.93.02-3.81.39-5.55,1.06l-1.35-2.26c-.22-.37-.71-.5-1.08-.27l-3.4,2.03c-.37.22-.5.71-.27,1.08l1.35,2.26c-1.43,1.23-2.63,2.71-3.57,4.38l-2.49-.87c-.41-.14-.86.07-1,.48l-1.3,3.74c-.14.41.07.86.48,1l2.47.86s0,.02,0,.03c-.31,1.92-.25,3.82.1,5.62l-2.46.94c-.41.15-.61.61-.46,1.02l1.41,3.7c.15.41.61.61,1.01.46l2.46-.93c.97,1.63,2.22,3.07,3.7,4.27l-1.29,2.3c-.21.38-.08.86.3,1.07l3.46,1.93c.38.21.86.08,1.07-.3l1.28-2.3c.88.31,1.8.56,2.75.71s1.9.21,2.83.19l.49,2.59c.08.43.49.71.92.63l3.89-.74c.43-.08.71-.49.63-.92l-.49-2.59c1.78-.68,3.43-1.65,4.86-2.89l2.04,1.66Zm-4.21-12.48c-.75,4.62-5.12,7.77-9.74,7.03s-7.77-5.12-7.03-9.74c.75-4.62,5.12-7.77,9.74-7.03,4.62.75,7.77,5.12,7.03,9.74Z"/><path class="cls-2" d="m139.84,86.77l-19.31-35.16c-.17-.31-.46-.54-.8-.63-.34-.1-.7-.05-1.01.12l-17.38,9.91c-.63.36-.85,1.15-.5,1.78l.12.22c-4.95-.27-16.57-.77-25.16-.22-9.43.6-13.59.87-18.32,6.4l-14.34-4.31.04-.08c.35-.63.12-1.42-.5-1.78l-17.38-9.91c-.31-.17-.67-.22-1.01-.12-.34.1-.63.32-.8.63L4.16,88.78c-.35.63-.12,1.42.5,1.78l17.38,9.91c.2.11.43.17.65.17.12,0,.24-.02.36-.05.34-.1.63-.32.8-.63l.17-.31,5.32,4c-1.35,1.24-2.33,2.85-2.33,5.21,0,1.35.3,3.88,2.32,5.67,1.22,1.08,2.83,1.67,4.8,1.78-.02.17-.03.35-.02.52.04,2.99,3.12,6.5,5.96,8.04.82.45,1.62.73,2.36.84-.08,1.06.24,2.19.99,3.31,1.62,2.4,4.89,4.29,8.11,4.29.21,0,.41-.01.62-.03.04.39.16.8.35,1.2,1.22,2.51,5.6,4.82,9.58,4.82.81,0,1.6-.1,2.34-.3,2.41-.67,4.22-2.3,5.37-3.46.01-.01.02-.02.03-.03,1.62.47,5.33,1.49,7.53,1.59.12,0,.24,0,.36,0,3.48,0,6.49-2.37,7.86-4.65.36-.59.59-1.17.72-1.71.43.06.85.1,1.26.1,3.61,0,6.28-2.16,7.45-4.68.74-1.61.89-3.26.53-4.74.57.1,1.13.15,1.66.15,3.18,0,5.69-1.67,7.11-3.96,1.02-1.64,1.4-3.41,1.2-5.01.78.21,1.55.32,2.29.32,1.37,0,2.68-.35,3.86-1.04,2.61-1.53,4.33-4.66,4.29-7.8-.02-1.21-.3-2.31-.81-3.26,1.13-.66,2.54-1.93,4.3-4.13l.69,1.25c.17.31.46.54.8.63.12.03.24.05.36.05.23,0,.45-.06.65-.17l17.38-9.91c.63-.36.85-1.15.5-1.78Zm-120.87,2.6c-2.15,0-3.89-1.74-3.89-3.89s1.74-3.89,3.89-3.89,3.89,1.74,3.89,3.89-1.74,3.89-3.89,3.89Zm10.69,19.49c0-2.58,1.75-3.72,4.6-5.37.53-.31,1.06-.61,1.58-.94,2.24-1.41,4.3,1,4.68,1.49,1.37,1.74,1.99,4.3.69,5.59-.43.34-.8.66-1.16.98-.91.81-1.78,1.58-4.07,2.91-.06.04-.12.08-.18.12-2.1.19-3.69-.17-4.71-1.08-1.29-1.15-1.43-2.97-1.44-3.71Zm7.09,7.94c0-.35.08-.6.3-.8l.41-.25c1.88-1.15,3.37-2.07,5.52-4.15.71-.56,1.93-1.44,3.07-2.2,3.24-2.12,6.03-.07,6.8.61,1.38,1.21,1.91,2.64,1.6,3.29-.12.22-1.14,2.14-2.67,4-.61.71-1.29,1.4-2.03,2.08-.64.56-1.31,1.03-1.98,1.44-.17.09-.35.18-.56.28-.74.37-1.75.87-3.36,1.89-.5.31-1.44.15-2.52-.44-2.33-1.26-4.55-4.06-4.58-5.76Zm8.86,10.76c-.66-.99-.73-1.8-.21-2.42.02-.01.04-.03.06-.04.33-.2.76-.43,1.26-.68.7-.36,1.52-.79,2.39-1.32.69-.37,1.35-.79,2.31-1.67.03-.02.05-.05.08-.07.03-.03.07-.05.1-.08.84-.71,1.6-1.54,2.28-2.36,1.17-1.36,2.11-2.77,2.83-4.21,2.61-2.21,5.2-1.79,6.77-.64,1.58,1.16,2.69,3.42,1.61,5.85-.28.64-1.01,1.71-1.89,2.86-.13.17-.25.32-.37.47-.86,1.09-1.83,2.2-2.69,3.07-.04.04-.07.07-.11.1-.26.23-.54.48-.87.74-.5.41-.94.72-1.36,1-.36.23-.74.45-1.17.68-.02,0-.03.02-.05.03,0,0-.01,0-.02,0-.48.24-.97.46-1.53.71-.35.16-.73.32-1.13.51-.06.03-.12.07-.17.1-.12.05-.23.1-.36.15-2.63,1.09-6.27-.57-7.76-2.78Zm18.11,8.91c-3.19.89-7.98-1.36-8.84-3.13-.14-.28-.19-.52.19-.86.88-.38,1.66-.74,2.37-1.11.67-.32,1.32-.68,2.06-1.19.85-.56,1.58-1.14,2.26-1.79,1.28-1.15,1.99-2.06,2.78-3.08.24-.31.49-.63.76-.98.37-.46.75-.57,1.32-.39,1.42.45,3.27,2.72,3.42,4.87.13,1.74-.55,3.3-2.12,4.88-1.02,1.03-2.42,2.27-4.21,2.77Zm46.62-26.85c-1.81,1.06-4.03.88-6.43-.51-.09-.06-.19-.09-.3-.12-.19-.17-.39-.32-.61-.47l-16.52-9.8c-.63-.37-1.44-.17-1.81.46-.37.63-.16,1.44.46,1.81l16.47,9.77c1.78,1.17,1.57,3.69.46,5.48-1.44,2.32-4.79,4.05-9.5,1.28,0,0,0,0-.01,0,0,0-.01,0-.02-.01l-12.38-6.86c-.64-.35-1.44-.12-1.79.52-.35.64-.12,1.44.52,1.79l12.36,6.84c2.07,1.2,2.18,3.51,1.37,5.27-1.05,2.26-3.75,3.96-7.48,2.72l-9.95-5.8c-.63-.37-1.44-.15-1.8.48-.37.63-.15,1.44.48,1.8l9.88,5.76s0,0,.01.01c-.05.32-.27.94-.89,1.72-1.05,1.32-3.1,2.82-5.39,2.72-1.56-.07-4.17-.73-5.91-1.2.86-1.46,1.23-3,1.11-4.65-.22-3.08-2.63-6.37-5.26-7.2-.05-.01-.09-.02-.14-.03.07-.14.16-.28.21-.41,1.44-3.22.42-6.95-2.46-9.05-2.4-1.76-5.4-1.9-8.1-.52-.38-1.17-1.17-2.36-2.34-3.38-2.33-2.04-6.17-3.33-9.98-.83-.02,0-.03.02-.04.03-.13-1.69-.87-3.42-1.96-4.81-2.31-2.94-5.51-3.76-8.16-2.1-.49.31-.99.6-1.5.89-.45.26-.92.53-1.37.81l-6.2-4.66,16.5-30.1,13.86,4.17c-.33.45-.66.93-1,1.44-1.05,1.58-1.92,2.79-2.62,3.77-1.75,2.45-2.72,3.8-3.44,6.45-.6,2.21.04,3.73.67,4.61,1.19,1.64,3.41,2.6,6.41,2.77,3.69.23,8.18-3.89,12.14-7.51,1.39-1.27,2.7-2.46,3.77-3.27,1.91-1.45,4.43-1.04,7.48,1.22,1.65,1.22,7.88,5.03,14.56,9.08,0,0,0,0,0,0,2.58,1.56,5.23,3.16,7.71,4.65,4.54,2.73,8.53,5.14,10.11,6.14,1.52.88,1.77,2.49,1.78,3.39.03,2.18-1.2,4.44-2.99,5.48Zm3.08-10.8c-1.23-.8-5.41-3.32-10.63-6.46-1.14-.69-2.34-1.41-3.57-2.15,2.54-.26,5.52-1.06,7.67-3.16.52-.51.53-1.34.02-1.86-.51-.52-1.34-.53-1.86-.02-3.1,3.03-8.96,2.54-10.2,2.4-6.44-3.9-12.59-7.67-14.13-8.8-2.6-1.92-4.78-2.6-6.56-2.6s-3.09.64-4.09,1.4c-1.17.89-2.52,2.12-3.95,3.43-3.17,2.89-7.48,6.83-10.08,6.83-.05,0-.09,0-.14,0-2.15-.12-3.72-.71-4.42-1.68-.44-.62-.53-1.39-.27-2.38.59-2.19,1.36-3.26,3.04-5.6.71-.99,1.6-2.23,2.67-3.84,5.37-8.03,7.99-8.19,19.03-8.9,9.64-.62,23.23.12,26.49.32l15.63,28.45c-1.78,2.31-3.83,4.37-4.65,4.63Zm11.58-11.27c-2.15,0-3.89-1.74-3.89-3.89s1.74-3.89,3.89-3.89,3.89,1.74,3.89,3.89-1.74,3.89-3.89,3.89Z"/><path class="cls-2" d="m29.81,50.04c.73,0,1.32-.59,1.32-1.32v-6.23h6.45l.19-1.09c.31-1.81.78-3.6,1.37-5.33l.36-1.03-5.52-3.19,5.08-8.81,5.46,3.15.71-.85c1.18-1.41,2.5-2.74,3.92-3.97l.83-.71-3.12-5.41,8.81-5.08,3.09,5.35,1.04-.38c1.73-.63,3.56-1.12,5.43-1.46l1.08-.2v-6.16h10.17v6.16l1.08.2c1.87.34,3.7.84,5.43,1.46l1.04.38,3.09-5.35,8.81,5.08-3.12,5.41.83.71c1.42,1.22,2.74,2.56,3.92,3.96l.71.85,5.46-3.15,5.08,8.81-5.52,3.19.36,1.03c.6,1.73,1.06,3.52,1.37,5.33l.19,1.09h6.45v6.23c0,.73.59,1.32,1.32,1.32s1.32-.59,1.32-1.32v-6.46c0-1.33-1.08-2.4-2.4-2.4h-4.48c-.25-1.22-.56-2.43-.93-3.61l3.85-2.22c.56-.32.95-.84,1.12-1.46.17-.62.08-1.27-.24-1.82l-5.32-9.21c-.32-.56-.84-.95-1.46-1.12-.62-.17-1.27-.08-1.82.24l-3.76,2.17c-.84-.94-1.73-1.84-2.67-2.7l2.16-3.74c.32-.56.41-1.2.24-1.82-.17-.62-.56-1.14-1.12-1.46l-9.21-5.32c-1.15-.66-2.62-.27-3.28.88l-2.11,3.65c-1.21-.4-2.46-.73-3.73-1v-4.21c0-1.33-1.08-2.4-2.4-2.4h-10.64c-1.33,0-2.4,1.08-2.4,2.4v4.21c-1.27.27-2.52.61-3.73,1l-2.11-3.65c-.66-1.15-2.14-1.54-3.28-.88l-9.21,5.32c-.56.32-.95.84-1.12,1.46-.17.62-.08,1.27.24,1.82l2.16,3.74c-.94.86-1.84,1.76-2.67,2.7l-3.76-2.17c-.56-.32-1.2-.41-1.82-.24-.62.17-1.14.56-1.46,1.12l-5.32,9.21c-.66,1.15-.27,2.62.88,3.28l3.85,2.22c-.37,1.18-.68,2.39-.93,3.61h-4.48c-1.33,0-2.4,1.08-2.4,2.4v6.46c0,.73.59,1.32,1.32,1.32Z"/><path class="cls-2" d="m97.37,54.13c.21.02.4-.14.41-.35l.32-4.07c.02-.21-.14-.4-.35-.41l-1.45-.11c-.17-.73-.44-1.41-.79-2.04l1-1.06c.14-.15.14-.4-.02-.54l-2.98-2.79c-.15-.14-.4-.14-.54.02l-.99,1.06c-.66-.31-1.36-.53-2.09-.66l-.21-1.44c-.03-.21-.23-.35-.43-.32l-4.04.59c-.21.03-.35.23-.32.43l.21,1.44c-.67.33-1.27.74-1.81,1.23l-1.26-.73c-.18-.11-.42-.04-.52.14l-2.05,3.53c-.11.18-.04.42.14.52l1.26.73c-.16.7-.22,1.43-.18,2.18l-1.36.53c-.2.08-.3.3-.22.5l1.48,3.8c.08.2.3.3.5.22l1.36-.53c.46.57,1,1.07,1.6,1.49l-.44,1.39c-.06.2.05.42.25.48l3.9,1.22c.2.06.42-.05.48-.25l.44-1.39c.36,0,.73-.02,1.09-.08.37-.05.72-.14,1.07-.24l.82,1.21c.12.18.36.22.53.1l3.38-2.29c.18-.12.22-.36.1-.53l-.82-1.21c.45-.57.82-1.21,1.1-1.89l1.45.11Zm-8.2.94c-2.24.33-4.33-1.23-4.66-3.47s1.23-4.33,3.47-4.66,4.33,1.23,4.66,3.47-1.23,4.33-3.47,4.66Z"/></g></g></g></svg>