<?xml version="1.0" encoding="UTF-8"?><svg id="Layer_2" xmlns="http://www.w3.org/2000/svg" viewBox="0 0 144 144"><defs><style>.cls-1{fill:none;}.cls-2{fill:#fff;}</style></defs><g id="Layer_1-2"><g><rect class="cls-1" width="144" height="144"/><g><path class="cls-2" d="m16.77,62.61c0,1.42,1.15,2.57,2.57,2.57h45.46l-11.42,11.42c-1,1-1,2.63,0,3.63.5.5,1.16.75,1.81.75s1.31-.25,1.81-.75l15.63-15.63c.48-.48.75-1.13.75-1.81s-.27-1.33-.75-1.81l-15.96-15.96c-1-1-2.63-1-3.63,0-1,1-1,2.63,0,3.63l11.42,11.42H19.33c-1.42,0-2.57,1.15-2.57,2.57Z"/><path class="cls-2" d="m88.59,63.5c-1-1-2.63-1-3.63,0l-15.96,15.96c-1,1-1,2.63,0,3.63l15.63,15.63c.5.5,1.16.75,1.81.75s1.31-.25,1.81-.75c1-1,1-2.63,0-3.63l-11.42-11.42h45.46c1.42,0,2.57-1.15,2.57-2.57s-1.15-2.57-2.57-2.57h-45.13l11.42-11.42c1-1,1-2.63,0-3.63Z"/><path class="cls-2" d="m133.47,95.75l-8.45-4.88s.03-.09.04-.13h-18.88c-6.64,12.06-19.47,20.26-34.18,20.26-21.5,0-38.99-17.49-38.99-38.99H4v7.28c0,1.6,1.29,2.89,2.89,2.89h9.74c.55,2.99,1.35,5.89,2.35,8.7l-8.45,4.88c-1.38.8-1.86,2.57-1.06,3.95l7.28,12.6c.8,1.38,2.57,1.86,3.95,1.06l8.45-4.88c1.95,2.29,4.08,4.42,6.37,6.37l-4.88,8.45c-.8,1.38-.32,3.15,1.06,3.95l12.6,7.28c1.38.8,3.15.32,3.95-1.06l4.88-8.45c2.81,1,5.71,1.8,8.7,2.35v9.74c0,1.6,1.29,2.89,2.89,2.89h14.55c1.6,0,2.89-1.29,2.89-2.89v-9.74c2.99-.55,5.89-1.35,8.7-2.35l4.88,8.45c.8,1.38,2.57,1.86,3.95,1.06l12.6-7.28c1.38-.8,1.86-2.57,1.06-3.95l-4.88-8.45c2.29-1.95,4.42-4.08,6.37-6.37l8.45,4.88c1.38.8,3.15.32,3.95-1.06l7.28-12.6c.8-1.38.32-3.15-1.06-3.95Z"/><path class="cls-2" d="m137.11,61.83h-9.74c-.55-2.99-1.35-5.89-2.35-8.7l8.45-4.88c1.38-.8,1.86-2.57,1.06-3.95l-7.28-12.6c-.8-1.38-2.57-1.86-3.95-1.06l-8.45,4.88c-1.95-2.29-4.08-4.42-6.37-6.37l4.88-8.45c.8-1.38.32-3.15-1.06-3.95l-12.6-7.28c-1.38-.8-3.15-.32-3.95,1.06l-4.88,8.45c-2.81-1-5.71-1.8-8.7-2.35V6.89c0-1.6-1.29-2.89-2.89-2.89h-14.55c-1.6,0-2.89,1.29-2.89,2.89v9.74c-2.99.55-5.89,1.35-8.7,2.35l-4.88-8.45c-.8-1.38-2.57-1.86-3.95-1.06l-12.6,7.28c-1.38.8-1.86,2.57-1.06,3.95l4.88,8.45c-2.29,1.95-4.42,4.08-6.37,6.37l-8.45-4.88c-1.38-.8-3.15-.32-3.95,1.06l-7.28,12.6c-.8,1.38-.32,3.15,1.06,3.95l8.1,4.68h19.4c6.69-11.87,19.4-19.92,33.98-19.92,21.5,0,38.99,17.49,38.99,38.99h29.01v-7.28c0-1.6-1.29-2.89-2.89-2.89Z"/></g></g></g></svg>