<?xml version="1.0" encoding="UTF-8"?>
<!-- Generated by Pixelmator Pro 3.6.11 -->
<svg width="9166" height="9166" viewBox="0 0 9166 9166" xmlns="http://www.w3.org/2000/svg">
    <g id="background">
        <path id="Path" fill="#ffffff" stroke="none" visibility="hidden" d="M 9166.666992 9166 L 0 9166 L 0 -0.666992 L 9166.666992 -0.666992 L 9166.666992 9166 Z"/>
    </g>
    <g id="Objects">
        <g id="Group">
            <path id="path1" fill="#edf0f2" stroke="none" d="M 7410.268555 2099.153809 C 7549.181641 2106.938477 7656.830566 2223.518066 7653.234375 2362.602539 C 7638.469238 2933.705078 7586.59082 4328.02002 7420.125977 5196.288574 C 7206.751953 6309.232422 5110.517578 8156.253906 4583.333496 8156.253906 C 4056.149414 8156.253906 1959.914795 6309.232422 1746.540894 5196.288574 C 1580.076172 4328.02002 1528.197266 2933.705078 1513.432129 2362.602539 C 1509.836304 2223.518066 1617.485229 2106.938477 1756.398071 2099.153809 C 3095.649414 2024.103027 4057.114746 1360.74707 4421.877441 1066.131348 C 4516.057617 990.0625 4650.608887 990.0625 4744.789551 1066.131348 C 5109.552246 1360.74707 6071.017578 2024.103027 7410.268555 2099.153809 Z"/>
            <path id="path2" fill="#95cbe8" stroke="none" d="M 4583.333496 7645.123047 C 4524.65625 7621.855957 4383.67627 7554.248047 4132.137695 7369.772949 C 3875.039063 7181.220215 3586.700439 6930.894531 3320.242676 6664.915039 C 3029.259033 6374.457031 2775.179688 6077.114258 2585.468994 5805.03418 C 2393.39502 5529.568359 2268.843994 5279.941406 2234.754395 5102.141602 C 2093.388184 4364.794922 2038.240356 3206.667969 2017.86145 2575.761719 C 2580.974609 2519.51709 3133.894531 2365.77002 3664.432129 2117.627441 C 4055.95459 1934.507324 4365.40918 1732.460449 4583.333496 1569.831055 C 4801.253418 1732.458496 5110.712402 1934.507324 5502.234863 2117.627441 C 6032.771973 2365.77002 6585.688477 2519.51709 7148.80127 2575.761719 C 7128.426758 3206.669922 7073.274902 4364.794922 6931.912109 5102.141602 C 6897.822754 5279.941406 6773.271484 5529.568359 6581.197754 5805.03418 C 6391.486816 6077.114258 6137.407227 6374.457031 5846.423828 6664.915039 C 5579.966309 6930.894531 5291.627441 7181.220215 5034.529297 7369.772949 C 4782.990723 7554.248047 4642.010254 7621.855957 4583.333496 7645.123047 Z"/>
            <path id="path3" fill="#1e2735" stroke="none" d="M 7634.290527 2133.432129 C 7602.897461 2099.429688 7565.851074 2072.346191 7525.087891 2053.130859 C 7484.324707 2033.915527 7439.844727 2022.528809 7393.625488 2019.958984 C 6830.412598 1988.368652 6275.779785 1846.546875 5745.105957 1598.330078 C 5314.066895 1396.728027 4996.303223 1170.810547 4805.613281 1016.811035 C 4742.906738 966.163086 4663.950684 938.25 4583.333496 938.25 C 4502.71582 938.25 4423.759766 966.163086 4361.053223 1016.811035 C 4170.363281 1170.810547 3852.599609 1396.728027 3421.561035 1598.330078 C 2890.887451 1846.546875 2336.25415 1988.368652 1773.041382 2019.958984 C 1680.602417 2025.138672 1595.122192 2065.427246 1532.376099 2133.432129 C 1469.590332 2201.515625 1436.299561 2290.000488 1438.711548 2382.558105 C 1453.182251 2942.845215 1504.897461 4339.905762 1671.706543 5210.088867 C 1724.014648 5482.9375 1882.876709 5807.106445 2143.824707 6173.540039 C 2366.500488 6486.243164 2659.236572 6822.115234 2990.324707 7144.702148 C 3293.222168 7439.889648 3614.939453 7710.168457 3896.249023 7905.800781 C 4202.78418 8118.987305 4433.960449 8227.083008 4583.333496 8227.083008 C 4732.706543 8227.083008 4963.882324 8118.987305 5270.417969 7905.800781 C 5551.727539 7710.168457 5873.445313 7439.889648 6176.341797 7144.702148 C 6507.430176 6822.115234 6800.166016 6486.243164 7022.841797 6173.540039 C 7283.790039 5807.106445 7442.651855 5482.9375 7494.959961 5210.088867 C 7661.769043 4339.905762 7713.484375 2942.845215 7727.955078 2382.558105 C 7730.367188 2290.000488 7697.07666 2201.515625 7634.290527 2133.432129 Z M 7589.652344 2379 C 7575.221191 2935.847168 7523.940918 4323.893066 7359.030273 5184.033203 C 7310.517578 5437.232422 7159.483887 5743.134766 6910.159668 6093.239746 C 6692.149414 6399.339844 6405.027832 6728.6875 6079.751465 7045.621094 C 5469.528809 7640.266602 4826.212891 8088.70166 4583.333496 8088.70166 C 4340.454102 8088.70166 3697.137939 7640.266602 3086.914795 7045.621094 C 2761.638916 6728.6875 2474.51709 6399.339844 2256.506836 6093.239746 C 2007.182861 5743.134766 1856.14917 5437.232422 1807.636719 5184.033203 C 1642.725342 4323.893066 1591.445313 2935.847168 1577.013916 2379 C 1574.009033 2261.691895 1663.482544 2164.666504 1780.790527 2158.103516 C 2361.677002 2125.563965 2933.429932 1979.393555 3480.155518 1723.664551 C 3923.806641 1516.170898 4251.336426 1283.294922 4447.996094 1124.472168 C 4486.149902 1093.632813 4534.227539 1076.631348 4583.333496 1076.631348 C 4632.438965 1076.631348 4680.516602 1093.632813 4718.67041 1124.472168 C 4915.330566 1283.294922 5242.859863 1516.170898 5686.51123 1723.664551 C 6233.237305 1979.393555 6804.989746 2125.563965 7385.876465 2158.103516 C 7503.184082 2164.666504 7592.657715 2261.691895 7589.652344 2379 Z"/>
            <g id="g1">
                <path id="path4" fill="#ffffff" stroke="none" d="M 6012.884766 3383.824707 C 5574.96582 3853.847656 5015.035156 4691.609863 4586.803223 5779.486328 C 4531.055176 5921.228516 4392.515625 6012.916016 4240.256348 6008.290039 L 4236.144043 6008.171875 C 4114.685059 6004.494629 4003.426025 5939.692383 3939.69165 5836.143555 C 3700.409912 5447.054199 3583.813721 5143.366211 3180.016357 4667.175293 C 3006.960205 4463.042969 3227.14502 4270.494629 3463.421631 4293.268555 C 3611.885254 4307.581055 3754.022949 4382.742188 3850.929688 4512.187988 C 3989.785645 4697.57959 4133.267578 4914.522461 4213.924316 5110.035645 C 4213.924316 5110.035645 4693.317383 4169.436523 5469.994141 3327.839844 C 5591.769531 3195.863281 5767.079102 3138.059082 5935.272461 3162.256348 C 6040.956055 3177.478027 6085.672852 3305.69873 6012.884766 3383.824707 Z"/>
            </g>
            <path id="path5" fill="none" stroke="none" d="M 6012.884766 3383.824707 C 5574.96582 3853.847656 5015.035156 4691.609863 4586.803223 5779.486328 C 4531.055176 5921.228516 4392.515625 6012.916016 4240.256348 6008.290039 L 4236.144043 6008.171875 C 4114.685059 6004.494629 4003.426025 5939.692383 3939.69165 5836.143555 C 3700.409912 5447.054199 3583.813721 5143.366211 3180.016357 4667.175293 C 3006.960205 4463.042969 3227.14502 4270.494629 3463.421631 4293.268555 C 3611.885254 4307.581055 3754.022949 4382.742188 3850.929688 4512.187988 C 3989.785645 4697.57959 4133.267578 4914.522461 4213.924316 5110.035645 C 4213.924316 5110.035645 4693.317383 4169.436523 5469.994141 3327.839844 C 5591.769531 3195.863281 5767.079102 3138.059082 5935.272461 3162.256348 C 6040.956055 3177.478027 6085.672852 3305.69873 6012.884766 3383.824707 Z"/>
        </g>
    </g>
</svg>
